<?xml version="1.0" encoding="utf-8"?>
<!-- Generator: Adobe Illustrator 16.0.0, SVG Export Plug-In . SVG Version: 6.00 Build 0)  -->
<!DOCTYPE svg PUBLIC "-//W3C//DTD SVG 1.1//EN" "http://www.w3.org/Graphics/SVG/1.1/DTD/svg11.dtd">
<svg version="1.1" id="Layer_1" xmlns="http://www.w3.org/2000/svg" xmlns:xlink="http://www.w3.org/1999/xlink" x="0px" y="0px"
	 width="192px" height="192px" viewBox="0 0 192 192" enable-background="new 0 0 192 192" xml:space="preserve">
<g>
	<g id="Layer1_0_FILL">
		<path fill="#04A03B" d="M54.333,152.353c2.994,2.993,5.989,2.98,8.983-0.035l22.767-22.767H31.532L54.333,152.353 M48.504,74.314
			c1.572-3.101,4.429-4.7,8.572-4.8h33.841L63.316,41.878c-2.994-2.995-5.989-2.995-8.983,0L3.622,92.624
			c-2.994,3.017-2.994,6.023,0,9.017l25.236,25.235L48.504,74.314z"/>
	</g>
</g>
<path fill="#310A67" d="M150.577,75.686h-14.469c-0.566,0.046-0.978,0.4-1.235,1.063l-0.033,0.068l-6.31,17.384h-14.059l6.48-17.899
	c0.103-0.396-0.138-0.602-0.72-0.616h-14.571c-0.545,0.092-0.935,0.446-1.166,1.063v0.034L87.9,122.59
	c-0.194,0.646,0.011,1.012,0.617,1.098h14.502c0.437-0.044,0.757-0.216,0.96-0.515l6.516-18h14.058l-5.896,16.286l0,0l-0.446,1.234
	c-0.011,0.042-0.022,0.077-0.034,0.103c-0.096,0.552,0.132,0.85,0.685,0.892h14.128c0.661-0.022,1.142-0.285,1.44-0.789l0.171-0.445
	l0.376-0.994h-0.033l16.354-45.157C151.38,75.903,151.14,75.698,150.577,75.686"/>
<path fill="#310A67" d="M189.836,75.686h-32.813c-0.777,0.038-1.303,0.369-1.576,0.995l-16.664,45.979
	c-0.142,0.634,0.075,0.978,0.651,1.028h14.161c0.659-0.022,1.126-0.297,1.405-0.822l12.788-35.283
	c0.202-0.478,0.545-0.729,1.03-0.754h6.172c0.335,0.009,0.518,0.146,0.549,0.411v25.648h-10.287c-0.572,0.021-0.972,0.239-1.2,0.651
	l-3.394,9.359c-0.116,0.51,0.124,0.773,0.72,0.789h29.761V76.749C191.065,76.087,190.631,75.733,189.836,75.686"/>
<path fill="#310A67" d="M86.391,75.686H55.087c-0.521,0.167-0.887,0.463-1.097,0.891l-16.801,46.459
	c-0.113,0.394,0.012,0.611,0.376,0.651h15.19c0.398-0.034,0.696-0.252,0.891-0.651l5.28-14.605h12.069
	c4.397-0.102,8.843-1.701,13.338-4.802c4.64-3.2,7.966-7.063,9.978-11.588c2.035-4.526,2.172-8.39,0.412-11.589
	C93.112,77.521,90.334,75.933,86.391,75.686"/>
<path fill="#FFFFFF" d="M75.111,86.486v0.034c0.023,0,0.045,0,0.068,0c1.738,0,3.041,0.537,3.909,1.611
	c0.846,1.075,1.017,2.366,0.514,3.875c-0.525,1.509-1.588,2.8-3.188,3.875c-1.348,0.918-2.754,1.444-4.218,1.577
	c-0.25,0.022-0.501,0.034-0.754,0.034c-0.253,0-0.504-0.012-0.754-0.034h-7.784l3.978-10.972H75.111z"/>
</svg>
